<?xml version="1.0" encoding="UTF-8"?>
<svg xmlns="http://www.w3.org/2000/svg" xmlns:xlink="http://www.w3.org/1999/xlink" version="1.1" id="Layer_1" x="0px" y="0px" viewBox="0 0 1000 226.19" style="enable-background:new 0 0 1000 226.19;" xml:space="preserve">
<style type="text/css">
	.st0{fill:#1C388C;}
	.st1{fill:#1C388C;}
	.st2{fill-rule:evenodd;clip-rule:evenodd;fill:#1C388C;}
</style>
<g>
	<path class="st1" d="M709.08,61.81c-7,17.77-15.42,30.89-25.28,39.42c-9.85,8.51-21.5,12.78-34.96,12.78   c-9.96,0-18.02-2.45-24.23-7.34c-6.21-4.91-9.32-11.2-9.32-18.9c0-8.13,3.41-15.04,10.22-20.75c6.83-5.7,15.14-8.55,24.98-8.55   c7.38,0,13.27,1.77,17.68,5.31c4.41,3.54,6.63,8.21,6.63,14.04c0,6.21-2.43,11.33-7.27,15.4c-4.86,4.05-11.03,6.08-18.54,6.08   c-4.03,0-7.83-0.53-11.37-1.6c-3.54-1.05-5.31-2.03-5.31-2.88c0-0.04,0.02-0.13,0.09-0.23c0.06-0.11,0.13-0.15,0.17-0.15   c0.19,0,2.07,0.53,5.59,1.6c3.5,1.07,6.93,1.6,10.26,1.6c7.08,0,12.93-1.81,17.53-5.46c4.63-3.65,6.93-8.23,6.93-13.72   c0-4.76-1.88-8.53-5.65-11.33c-3.75-2.79-8.83-4.18-15.21-4.18c-8.98,0-16.77,2.71-23.31,8.13c-6.55,5.4-9.83,11.82-9.83,19.22   c0,6.59,2.69,11.86,8.08,15.83c5.4,3.99,12.52,5.97,21.35,5.97c11.45,0,21.07-3.71,28.86-11.11c7.79-7.4,15.06-19.9,21.8-37.45   c-1.17,0.09-2.3,0.15-3.41,0.21c-1.11,0.06-2.13,0.11-3.09,0.11c-8.79,0-16.06-2.22-21.76-6.65c-5.72-4.46-8.57-9.94-8.57-16.49   c0-6.25,2.58-11.43,7.72-15.53c5.14-4.07,11.69-6.12,19.67-6.12c6.12,0,11.69,1.19,16.7,3.56c5.03,2.39,9.51,5.97,13.48,10.77   c4.16-3.45,7.98-6.1,11.41-7.91c3.43-1.81,6.4-2.71,8.85-2.71c2.09,0,3.71,0.62,4.88,1.83c1.17,1.24,1.75,2.94,1.75,5.1   c0,5.63-3.52,11.56-10.56,17.79C728.98,53.71,720,58.49,709.08,61.81 M700.4,60.38c2.35-4.8,5.01-9.32,8-13.57   c3.01-4.24,6.36-8.25,10.05-12.01c-3.58-4.57-7.81-8.04-12.71-10.41c-4.89-2.37-10.3-3.56-16.21-3.56   c-6.91,0-12.63,1.75-17.15,5.25c-4.52,3.5-6.78,7.81-6.78,12.93c0,5.76,3.07,10.77,9.19,15.06c6.12,4.29,13.52,6.44,22.18,6.44   c0.38,0,0.96-0.02,1.73-0.06C699.46,60.41,700.03,60.38,700.4,60.38z M710.53,58.59c9.49-2.22,17.58-6.31,24.25-12.31   c6.68-5.97,10.02-11.56,10.02-16.72c0-1.6-0.45-2.84-1.36-3.75c-0.92-0.92-2.13-1.39-3.63-1.39c-2.13,0-4.78,1.11-7.98,3.33   c-3.18,2.2-6.33,5.18-9.45,8.94c1.24,1.56,2.24,3.03,2.99,4.42c0.75,1.41,1.13,2.41,1.13,3.05c-0.04,0.19-0.11,0.36-0.19,0.47   c-0.09,0.11-0.19,0.15-0.3,0.15c-0.43,0-1.11-0.81-2.05-2.41c-0.92-1.6-1.83-2.96-2.71-4.09c-2,2.58-3.86,5.52-5.59,8.81   C713.94,50.38,712.23,54.22,710.53,58.59z M566.27,97.63l2.69-5.63h29.82l-2.69,5.63H566.27z M546.97,80.37   c-3.28,3.33-6.68,7.02-10.15,11.07c-3.5,4.03-5.48,6.06-5.99,6.06c-0.15,0-0.3-0.04-0.43-0.15c-0.13-0.11-0.19-0.23-0.19-0.34   c0-0.68,3.35-4.67,10.07-12.01c2.75-2.96,4.95-5.33,6.57-7.08c0.77-1.79,1.58-3.14,2.45-4.03c0.85-0.9,1.79-1.34,2.79-1.34   c0.83,0,1.47,0.21,1.9,0.62c0.45,0.43,0.66,1.02,0.66,1.81c0,0.68-0.21,1.28-0.66,1.79c-0.43,0.51-1.11,0.98-2.03,1.41   c-0.21,0.09-0.51,0.19-0.87,0.32c-1.56,0.58-2.33,2-2.33,4.31c0,1.62,0.4,4.16,1.22,7.57c0.81,3.41,1.22,5.95,1.22,7.64   c0,1.32-0.13,2.6-0.38,3.82c-0.26,1.19-0.68,2.45-1.28,3.75c1.96-1.96,4.05-4.18,6.29-6.68c2.22-2.47,3.5-3.71,3.84-3.71   c0.21,0,0.38,0.06,0.53,0.19c0.15,0.13,0.21,0.28,0.21,0.43c0,0.38-0.38,1.02-1.13,1.94c-0.75,0.92-2.05,2.35-3.88,4.24   c-4.33,4.54-7.94,7.68-10.81,9.41c-2.88,1.73-5.76,2.6-8.62,2.6c-2.64,0-4.73-0.6-6.34-1.81c-1.58-1.22-2.37-2.82-2.37-4.82   c0-1.07,0.41-2.03,1.19-2.86c0.79-0.83,1.71-1.26,2.75-1.26c0.77,0,1.41,0.23,1.92,0.72c0.53,0.47,0.79,1.05,0.79,1.71   c0,0.47-0.26,1.24-0.79,2.32c-0.51,1.09-0.79,1.94-0.79,2.56c0,0.43,0.19,0.77,0.53,1c0.36,0.26,0.83,0.38,1.41,0.38   c2.92,0,5.8-2.67,8.66-7.98c2.86-5.31,4.29-11.58,4.29-18.79c0-0.51-0.02-1.11-0.06-1.79C547.12,82.72,547.05,81.69,546.97,80.37z    M513.4,102.23l-0.19,0.32c-2.24,3.56-3.37,5.97-3.37,7.23c0,0.75,0.17,1.32,0.49,1.71c0.34,0.41,0.85,0.6,1.51,0.6   c1.13,0,2.77-0.85,4.97-2.58c2.2-1.73,5.16-4.5,8.92-8.32c1.04-1.05,2.18-2.3,3.41-3.78c1.24-1.47,2.05-2.22,2.47-2.22   c0.21,0,0.38,0.04,0.53,0.15c0.15,0.11,0.21,0.23,0.21,0.34c0,0.43-0.3,1.02-0.9,1.81c-0.62,0.81-1.98,2.3-4.1,4.5   c-3.75,3.97-6.95,6.95-9.6,8.98c-2.64,2.03-4.65,3.03-6.04,3.03c-1.79,0-3.24-0.81-4.33-2.41c-1.11-1.6-1.66-3.71-1.66-6.29   c0-0.47,0.04-0.98,0.13-1.56c0.09-0.6,0.21-1.3,0.36-2.13c-3.41,3.97-6.57,7.02-9.45,9.17c-2.9,2.15-5.31,3.22-7.27,3.22   c-2.13,0-3.84-0.73-5.12-2.2c-1.3-1.45-1.94-3.41-1.94-5.86c0-3.39,3.14-9.79,9.43-19.2l0.94-1.39c-2.3,2.26-4.71,4.82-7.21,7.7   c-2.52,2.88-3.99,4.31-4.46,4.31c-0.15,0-0.3-0.02-0.43-0.09c-0.13-0.06-0.19-0.17-0.19-0.3c0-0.49,1.36-2.3,4.07-5.4   c2.71-3.11,6.78-7.51,12.2-13.18l9.19-0.49L493.3,97.73l-0.81,1.32c-3.63,5.78-5.44,9.34-5.44,10.73c0,0.62,0.19,1.15,0.6,1.62   c0.38,0.45,0.87,0.68,1.47,0.68c3.41,0,7.87-2.97,13.35-8.89c5.5-5.95,11.39-14.21,17.68-24.79l8.64-0.49L513.4,102.23z    M464.76,85.32c-2.35,2.33-4.78,4.93-7.32,7.76c-2.52,2.86-4.01,4.29-4.46,4.29c-0.17,0-0.3-0.02-0.38-0.09   c-0.08-0.06-0.13-0.17-0.13-0.3c0-0.87,2.5-3.86,7.49-9c4.99-5.12,8.53-9.28,10.67-12.5l5.57-8.32h-6.19l1.07-1.79h6.25l7.81-12.44   l8.32-0.62l-8.21,13.05h14.72l-1,1.79h-14.82L465,97.75c-2.03,3.24-3.54,5.82-4.52,7.79c-0.98,1.96-1.47,3.37-1.47,4.25   c0,0.62,0.21,1.17,0.66,1.68c0.43,0.49,0.94,0.75,1.54,0.75c1.54,0,3.39-0.79,5.55-2.37c2.18-1.58,5.31-4.52,9.45-8.81   c0.92-0.9,1.96-2.07,3.18-3.48c1.41-1.58,2.3-2.37,2.69-2.37c0.21,0,0.38,0.06,0.53,0.19c0.15,0.13,0.21,0.28,0.21,0.43   c0,0.38-0.36,1-1.07,1.88c-0.7,0.87-2.3,2.6-4.8,5.18c-4.29,4.37-7.53,7.34-9.75,8.85c-2.2,1.51-4.16,2.28-5.87,2.28   c-2.09,0-3.75-0.73-5.03-2.2c-1.26-1.45-1.9-3.41-1.9-5.86c0-3.26,2.96-9.34,8.87-18.26C463.93,86.64,464.42,85.85,464.76,85.32z    M414.98,97.63l2.69-5.63h29.82l-2.69,5.63H414.98z M391.71,86l5.25-7.66l8.45-0.51l-14.08,22.1c-2.09,3.26-3.39,5.52-3.95,6.76   c-0.53,1.26-0.81,2.35-0.81,3.26c0,0.7,0.15,1.22,0.45,1.54c0.28,0.3,0.79,0.47,1.49,0.47c1.09,0,2.77-0.92,5.1-2.73   c2.3-1.81,5.23-4.54,8.72-8.17c1-1,2.15-2.22,3.48-3.69c1.32-1.45,2.11-2.18,2.41-2.18c0.26,0,0.43,0.04,0.55,0.13   c0.13,0.09,0.19,0.21,0.19,0.36c0,0.47-0.47,1.28-1.43,2.45c-0.96,1.15-2.45,2.75-4.46,4.74c-4.5,4.63-7.81,7.64-9.96,9.04   c-2.15,1.39-4.16,2.09-6.04,2.09c-1.71,0-3.01-0.53-3.9-1.62c-0.9-1.09-1.34-2.67-1.34-4.76c0-0.53,0.04-1.15,0.13-1.83   c0.09-0.71,0.26-1.71,0.49-3.05c-2.92,3.71-5.74,6.53-8.47,8.43c-2.73,1.9-5.29,2.84-7.68,2.84c-2.28,0-4.09-1.15-5.42-3.48   c-1.3-2.3-1.96-5.5-1.96-9.58c0-1,0.06-2,0.21-3.01c0.15-1,0.34-1.98,0.6-2.94c-0.49,0.79-0.98,1.41-1.43,1.83   c-0.47,0.45-0.85,0.66-1.19,0.66c-0.3,0-0.49-0.04-0.6-0.13c-0.11-0.09-0.15-0.21-0.15-0.36c0-0.34,0.53-1.15,1.62-2.43   c1.09-1.3,2.54-2.88,4.37-4.76c4.01-3.99,8.02-7.08,12.05-9.26c4.01-2.2,7.7-3.28,11.03-3.28c2.05,0,3.69,0.53,4.93,1.62   c1.22,1.09,1.83,2.52,1.83,4.31c0,0.41-0.04,0.85-0.13,1.3C391.98,84.98,391.88,85.47,391.71,86z M364.3,107.76   c0,1.22,0.28,2.18,0.81,2.88c0.55,0.7,1.3,1.07,2.26,1.07c1.41,0,3.18-0.7,5.29-2.13c2.11-1.41,4.31-3.39,6.59-5.93   c3.48-3.8,6.14-7.49,8.04-11.09c1.9-3.6,2.86-6.72,2.86-9.34c0-1.13-0.4-2.09-1.22-2.86c-0.81-0.77-1.81-1.15-2.99-1.15   c-2.07,0-4.35,0.9-6.8,2.71c-2.47,1.81-4.91,4.37-7.34,7.66c-2.33,3.31-4.18,6.59-5.5,9.9C364.96,102.75,364.3,105.52,364.3,107.76   z M323.99,94.81c-0.7,0.92-1.28,1.58-1.71,1.96c-0.45,0.4-0.81,0.6-1.11,0.6c-0.19,0-0.36-0.02-0.47-0.09   c-0.11-0.06-0.15-0.21-0.15-0.41c0-0.3,0.45-1,1.32-2.09c0.87-1.11,2.09-2.52,3.67-4.22c3.93-4.29,7.89-7.57,11.92-9.85   c4.01-2.28,7.85-3.43,11.48-3.43c2.11,0,3.84,0.55,5.12,1.66c1.3,1.09,1.94,2.52,1.94,4.27c0,3.54-2.32,6.95-7,10.24   c-4.67,3.28-10.92,5.82-18.75,7.59c-0.23,1.56-0.41,2.67-0.49,3.37c-0.09,0.7-0.13,1.3-0.13,1.75c0,1.88,0.45,3.33,1.34,4.37   c0.9,1.04,2.15,1.56,3.78,1.56c2.18,0,4.5-0.72,6.95-2.15c2.45-1.43,5.4-3.84,8.81-7.21c1.43-1.41,2.92-3.01,4.52-4.82   c1.6-1.81,2.56-2.71,2.9-2.71c0.21,0,0.38,0.06,0.53,0.19c0.15,0.13,0.21,0.28,0.21,0.43c0,0.38-0.41,1.05-1.19,2   c-0.79,0.96-2.56,2.86-5.31,5.7c-3.75,3.75-7.04,6.44-9.88,8.06c-2.84,1.62-5.57,2.43-8.19,2.43c-3.16,0-5.78-1.3-7.81-3.9   c-2.05-2.6-3.07-5.91-3.07-9.92c0-0.83,0.06-1.69,0.19-2.58C323.56,96.71,323.75,95.77,323.99,94.81z M330.96,99.06   c5.7-1.26,10.6-3.71,14.7-7.38c4.07-3.67,6.12-7.1,6.12-10.3c0-0.7-0.21-1.3-0.66-1.81c-0.43-0.49-0.96-0.75-1.6-0.75   c-2.77,0-6.06,1.96-9.81,5.87C335.95,88.6,333.03,93.38,330.96,99.06z M245.21,113.5l16.77-24.94l0.51-0.81   c2.37-3.5,3.56-5.78,3.56-6.87c0-0.58-0.13-1-0.4-1.28c-0.28-0.28-0.73-0.41-1.34-0.41c-1.39,0-3.16,0.87-5.35,2.62   c-2.2,1.75-5.42,4.91-9.68,9.43c-0.87,0.92-1.92,2.11-3.14,3.56c-1.45,1.79-2.41,2.69-2.88,2.69c-0.15,0-0.3-0.04-0.43-0.15   c-0.13-0.11-0.19-0.23-0.19-0.34c0-0.34,0.19-0.79,0.6-1.39c0.38-0.58,1.17-1.54,2.35-2.86l4.07-4.44   c4.12-4.42,7.23-7.38,9.34-8.89c2.09-1.51,4.03-2.28,5.78-2.28c1.54,0,2.75,0.53,3.65,1.62c0.9,1.09,1.34,2.56,1.34,4.44   c0,1.92-0.4,3.97-1.22,6.19c-0.81,2.2-2.09,4.74-3.88,7.62c5.76-7.25,10.32-12.37,13.69-15.36c3.37-3.01,6.23-4.5,8.55-4.5   c1.49,0,2.73,0.51,3.69,1.54c0.96,1.02,1.43,2.3,1.43,3.84c0,2.24-0.43,4.5-1.28,6.76c-0.87,2.28-2.24,4.76-4.12,7.47   c6.8-7.7,11.77-12.88,14.93-15.57c3.14-2.69,5.7-4.03,7.66-4.03c1.47,0,2.62,0.58,3.5,1.75c0.87,1.17,1.32,2.69,1.32,4.54   c0,3.22-2.13,7.68-6.4,13.44c-0.66,0.94-1.19,1.68-1.56,2.18c-2.28,3.16-3.84,5.5-4.65,7.02c-0.81,1.51-1.22,2.75-1.22,3.71   c0,0.75,0.17,1.32,0.49,1.71c0.34,0.41,0.85,0.6,1.58,0.6c1.07,0,2.81-0.94,5.18-2.81c2.37-1.86,5.25-4.57,8.62-8.11   c1-0.98,2.13-2.24,3.43-3.73c1.32-1.49,2.13-2.24,2.41-2.24c0.21,0,0.41,0.06,0.55,0.21c0.17,0.15,0.26,0.28,0.26,0.41   c0,0.68-1.86,2.9-5.57,6.7l-0.75,0.75c-3.54,3.63-6.5,6.31-8.87,8.08c-2.37,1.77-4.18,2.67-5.44,2.67c-1.83,0-3.31-0.83-4.44-2.5   c-1.13-1.66-1.68-3.86-1.68-6.57c0-1.96,0.51-3.99,1.54-6.12c1.02-2.13,3.24-5.33,6.68-9.62c0.45-0.6,1.11-1.39,1.94-2.39   c2.45-3.03,3.67-5.06,3.67-6.06c-0.04-0.58-0.15-0.98-0.34-1.17c-0.19-0.21-0.55-0.34-1.09-0.38c-1.83,0-5.61,2.99-11.28,8.94   c-5.7,5.95-12.56,14.1-20.6,24.47l-8.92,0.9l16.62-24.94c1.71-2.54,2.79-4.29,3.26-5.27c0.49-0.98,0.72-1.83,0.72-2.54   c0-0.58-0.13-0.98-0.4-1.22c-0.28-0.23-0.75-0.34-1.41-0.34c-3.33,0-12.78,9.6-28.35,28.77l-3.75,4.63L245.21,113.5z M227.42,86   l5.25-7.66l8.45-0.51l-14.08,22.1c-2.09,3.26-3.39,5.52-3.95,6.76c-0.53,1.26-0.81,2.35-0.81,3.26c0,0.7,0.15,1.22,0.45,1.54   c0.28,0.3,0.79,0.47,1.49,0.47c1.09,0,2.77-0.92,5.1-2.73c2.3-1.81,5.23-4.54,8.72-8.17c1-1,2.15-2.22,3.48-3.69   c1.32-1.45,2.11-2.18,2.41-2.18c0.26,0,0.43,0.04,0.55,0.13c0.13,0.09,0.19,0.21,0.19,0.36c0,0.47-0.47,1.28-1.43,2.45   c-0.96,1.15-2.45,2.75-4.46,4.74c-4.5,4.63-7.81,7.64-9.96,9.04c-2.15,1.39-4.16,2.09-6.04,2.09c-1.71,0-3.01-0.53-3.9-1.62   c-0.9-1.09-1.34-2.67-1.34-4.76c0-0.53,0.04-1.15,0.13-1.83c0.09-0.71,0.26-1.71,0.49-3.05c-2.92,3.71-5.74,6.53-8.47,8.43   c-2.73,1.9-5.29,2.84-7.68,2.84c-2.28,0-4.09-1.15-5.42-3.48c-1.3-2.3-1.96-5.5-1.96-9.58c0-1,0.06-2,0.21-3.01   c0.15-1,0.34-1.98,0.6-2.94c-0.49,0.79-0.98,1.41-1.43,1.83c-0.47,0.45-0.85,0.66-1.19,0.66c-0.3,0-0.49-0.04-0.6-0.13   c-0.11-0.09-0.15-0.21-0.15-0.36c0-0.34,0.53-1.15,1.62-2.43c1.09-1.3,2.54-2.88,4.37-4.76c4.01-3.99,8.02-7.08,12.05-9.26   c4.01-2.2,7.7-3.28,11.03-3.28c2.05,0,3.69,0.53,4.93,1.62c1.22,1.09,1.83,2.52,1.83,4.31c0,0.41-0.04,0.85-0.13,1.3   C227.7,84.98,227.6,85.47,227.42,86z M200.02,107.76c0,1.22,0.28,2.18,0.81,2.88c0.55,0.7,1.3,1.07,2.26,1.07   c1.41,0,3.18-0.7,5.29-2.13c2.11-1.41,4.31-3.39,6.59-5.93c3.48-3.8,6.14-7.49,8.04-11.09c1.9-3.6,2.86-6.72,2.86-9.34   c0-1.13-0.4-2.09-1.22-2.86c-0.81-0.77-1.81-1.15-2.99-1.15c-2.07,0-4.35,0.9-6.8,2.71c-2.47,1.81-4.91,4.37-7.34,7.66   c-2.32,3.31-4.18,6.59-5.5,9.9C200.68,102.75,200.02,105.52,200.02,107.76z M190.4,57.68c0-1.41,0.53-2.73,1.6-3.92   c1.07-1.22,2.24-1.81,3.54-1.81c1,0,1.81,0.34,2.47,1.02c0.64,0.68,0.96,1.58,0.96,2.64c0,1.43-0.53,2.73-1.6,3.97   c-1.07,1.22-2.24,1.83-3.54,1.83c-1.04,0-1.88-0.36-2.49-1.07C190.72,59.64,190.4,58.74,190.4,57.68z M164.16,118.49   c-9.3,5.4-16.51,10.64-21.63,15.81c-5.12,5.14-7.68,9.62-7.68,13.42c0,1.41,0.32,2.47,0.94,3.22c0.62,0.73,1.54,1.09,2.75,1.09   c3.16,0,6.74-2.6,10.75-7.79C153.28,139.05,158.23,130.45,164.16,118.49z M181.14,82.61c-2.67,2.84-5.54,6.04-8.68,9.58   c-3.11,3.54-4.91,5.31-5.38,5.31c-0.17,0-0.3-0.04-0.43-0.15c-0.13-0.11-0.19-0.23-0.19-0.34c0-0.34,0.19-0.81,0.6-1.39   c0.38-0.58,1.17-1.54,2.35-2.86l12.5-14.36l9.13-0.62c-2.92,6.12-5.89,12.18-8.89,18.17c-2.99,5.97-6.06,11.88-9.17,17.66   c5.29-3.63,10.07-7.59,14.29-11.92c4.24-4.33,6.36-6.51,6.36-6.51c0.26,0,0.43,0.04,0.55,0.13c0.13,0.09,0.19,0.21,0.19,0.36   c0,1.17-2.3,3.95-6.89,8.36c-4.59,4.39-9.98,8.55-16.19,12.52c-6.25,11.92-12.29,21.1-18.07,27.56c-5.8,6.46-10.86,9.68-15.19,9.68   c-2.13,0-3.75-0.53-4.84-1.62c-1.11-1.09-1.66-2.67-1.66-4.76c0-4.12,2.6-8.62,7.81-13.5c5.2-4.86,13.99-10.9,26.32-18.11   L181.14,82.61z M150.42,85.32c-2.28,2.37-4.67,4.99-7.12,7.87c-2.47,2.88-3.92,4.31-4.39,4.31c-0.15,0-0.3-0.04-0.43-0.15   c-0.13-0.11-0.19-0.23-0.19-0.34c0-0.34,0.19-0.79,0.6-1.39c0.4-0.58,1.19-1.54,2.39-2.86l4.03-4.44c2.58-2.79,4.93-5.42,7.04-7.85   c2.09-2.45,3.46-4.1,4.1-4.97l25.23-39.21l8.32-1.13l-39.44,62.58c-2.71,4.27-4.44,7.15-5.16,8.6c-0.73,1.45-1.09,2.6-1.09,3.44   c0,0.66,0.21,1.24,0.66,1.71c0.43,0.49,0.98,0.73,1.64,0.73c1.56,0,3.28-0.66,5.23-1.96c1.94-1.3,5.33-4.37,10.15-9.19   c0.96-0.96,2.09-2.18,3.39-3.65c1.28-1.47,2.11-2.22,2.5-2.22c0.21,0,0.38,0.06,0.53,0.19c0.15,0.13,0.21,0.28,0.21,0.43   c0,0.38-0.36,1-1.07,1.88c-0.7,0.87-2.3,2.6-4.8,5.18c-4.29,4.37-7.53,7.34-9.75,8.85c-2.2,1.51-4.16,2.28-5.86,2.28   c-2.09,0-3.75-0.73-5.03-2.2c-1.26-1.45-1.9-3.41-1.9-5.86c0-3.37,3.07-9.71,9.21-19.01L150.42,85.32z M107.87,114.01   c0.49-1.22,1.15-2.84,1.96-4.86c0.81-2.05,1.34-3.37,1.6-3.95c-4.44-0.45-8.66-1.43-12.73-2.94c-4.05-1.49-8.13-3.61-12.22-6.31   c-7.08,6.12-14.38,10.66-21.88,13.63c-7.53,2.97-15.46,4.44-23.85,4.44c-11.03,0-19.73-2.41-26.11-7.21   c-6.38-4.82-9.56-11.37-9.56-19.67c0-8.08,3.39-15.02,10.2-20.78c6.78-5.78,14.82-8.66,24.12-8.66c7.42,0,13.42,1.75,18.02,5.27   c4.61,3.52,6.91,8.04,6.91,13.52c0,6.65-2.47,12.09-7.44,16.27c-4.97,4.18-11.41,6.27-19.32,6.27c-2.09,0-3.67-0.13-4.76-0.36   c-1.09-0.26-1.62-0.6-1.62-1.05c0-0.13,0.11-0.26,0.32-0.34c0.19-0.11,0.47-0.17,0.81-0.17c0.09,0,0.3,0.02,0.62,0.06   c1.47,0.13,2.84,0.19,4.14,0.19c7.34,0,13.31-1.79,17.92-5.4c4.61-3.61,6.91-8.17,6.91-13.65c0-4.63-1.79-8.3-5.4-11.03   c-3.6-2.73-8.49-4.1-14.65-4.1c-9.13,0-16.96,2.67-23.51,8.02c-6.55,5.35-9.81,11.67-9.81,18.96c0,6.66,2.9,11.99,8.68,16   c5.78,4.03,13.55,6.04,23.29,6.04c8.21,0,16.02-1.47,23.46-4.41c7.42-2.96,14.38-7.32,20.82-13.1c-5.46-4.42-9.51-9.02-12.2-13.82   c-2.69-4.8-4.03-9.83-4.03-15.14c0-5.91,1.86-10.73,5.59-14.42c3.73-3.69,8.47-5.52,14.23-5.52c5.16,0,10.05,1.56,14.67,4.67   c4.63,3.09,8.55,7.55,11.82,13.35c11.07-12.2,20.75-21.39,29.03-27.6c8.26-6.21,17.11-11.35,26.51-15.38   c-9.15,11.05-17.64,23.25-25.45,36.64c-7.81,13.4-15.38,28.88-22.76,46.41c6.08-0.34,11.3-2.62,15.72-6.89   c1.09-1.05,1.81-1.56,2.18-1.56c0.04,0,0.11,0.02,0.19,0.09c0.08,0.06,0.15,0.17,0.19,0.3c0,1.79-1.92,3.82-5.78,6.08   c-3.84,2.28-8.3,3.6-13.37,4.03l-3.26,6.68L107.87,114.01z M117.19,93.02c5.42-11.54,11.82-22.74,19.24-33.57   c7.42-10.84,16.15-21.71,26.17-32.68c-6.78,2.84-14.08,7.47-21.84,13.93c-7.76,6.46-16.08,14.78-24.96,24.93   c0.79,2.54,1.41,5.21,1.81,8c0.41,2.79,0.6,5.67,0.6,8.64c0,1.58-0.09,3.26-0.26,5.03C117.79,89.07,117.53,90.97,117.19,93.02z    M112.18,103.38c1.45-3.63,2.52-7.12,3.22-10.49c0.68-3.37,1.02-6.83,1.02-10.37c0-2.92-0.17-5.67-0.49-8.23   c-0.34-2.56-0.85-4.97-1.58-7.21c-1.66,1.75-4.12,4.39-7.36,7.93c-8.13,8.83-14.42,15.32-18.88,19.43   c3.37,2.54,7.04,4.56,10.98,6.04C103.07,101.96,107.42,102.94,112.18,103.38z M86.48,93.45c5.38-4.86,12.71-12.44,22.01-22.67   c2.2-2.47,3.88-4.31,4.99-5.5c-2.62-5.18-5.76-9.07-9.43-11.69c-3.67-2.62-7.79-3.95-12.33-3.95c-5.12,0-9.47,1.96-13.05,5.91   c-3.58,3.95-5.38,8.77-5.38,14.46c0,4.59,1.05,8.77,3.16,12.5C78.56,86.26,81.89,89.9,86.48,93.45z"></path>
	<path class="st1" d="M939.76,113.5l18.45-29.44l-10.26,11.01c-0.66,0.75-1.28,1.34-1.81,1.77c-0.55,0.45-0.92,0.66-1.13,0.66   c-0.3,0-0.49-0.04-0.6-0.13c-0.11-0.09-0.15-0.21-0.15-0.36c0-0.04,2.94-3.39,8.81-10c5.89-6.63,11.31-14.16,16.25-22.61   l16.36-28.09l8.32-1.13l-36.18,61.84c7-7.7,12.16-12.95,15.49-15.7c3.31-2.77,5.97-4.16,7.98-4.16c1.47,0,2.62,0.58,3.5,1.75   c0.87,1.17,1.32,2.69,1.32,4.54c0,3.22-2.13,7.68-6.4,13.44c-0.66,0.94-1.19,1.68-1.56,2.18c-2.28,3.16-3.84,5.5-4.65,7.02   c-0.81,1.51-1.22,2.75-1.22,3.71c0,0.75,0.17,1.32,0.49,1.71c0.34,0.41,0.85,0.6,1.58,0.6c1.07,0,2.82-0.94,5.18-2.81   c2.37-1.86,5.25-4.57,8.62-8.11c1-0.98,2.13-2.24,3.41-3.73c1.34-1.49,2.13-2.24,2.43-2.24c0.21,0,0.36,0.06,0.49,0.19   c0.13,0.13,0.19,0.28,0.19,0.43c0,0.43-0.38,1.09-1.13,2c-0.75,0.92-2.43,2.73-5.06,5.44c-3.54,3.63-6.51,6.31-8.87,8.08   c-2.37,1.77-4.18,2.67-5.44,2.67c-1.83,0-3.31-0.83-4.44-2.5c-1.13-1.66-1.68-3.86-1.68-6.57c0-1.96,0.51-3.99,1.54-6.12   c1.02-2.13,3.24-5.33,6.68-9.62c0.45-0.6,1.11-1.39,1.94-2.39c2.45-3.03,3.67-5.06,3.67-6.06c-0.04-0.58-0.17-0.98-0.41-1.22   c-0.23-0.23-0.58-0.34-1.02-0.34c-1.96,0-5.93,3.01-11.92,9.02c-5.97,6.02-12.97,14.14-20.97,24.38L939.76,113.5z M929.05,86   l5.25-7.66l8.45-0.51l-14.08,22.1c-2.09,3.26-3.39,5.52-3.95,6.76c-0.53,1.26-0.81,2.35-0.81,3.26c0,0.7,0.15,1.22,0.45,1.54   c0.28,0.3,0.79,0.47,1.49,0.47c1.09,0,2.77-0.92,5.1-2.73c2.3-1.81,5.23-4.54,8.72-8.17c1-1,2.15-2.22,3.48-3.69   c1.32-1.45,2.11-2.18,2.41-2.18c0.26,0,0.43,0.04,0.55,0.13c0.13,0.09,0.19,0.21,0.19,0.36c0,0.47-0.47,1.28-1.43,2.45   c-0.96,1.15-2.45,2.75-4.46,4.74c-4.5,4.63-7.81,7.64-9.96,9.04c-2.15,1.39-4.16,2.09-6.04,2.09c-1.71,0-3.01-0.53-3.9-1.62   c-0.9-1.09-1.34-2.67-1.34-4.76c0-0.53,0.04-1.15,0.13-1.83c0.09-0.71,0.26-1.71,0.49-3.05c-2.92,3.71-5.74,6.53-8.47,8.43   c-2.73,1.9-5.29,2.84-7.68,2.84c-2.28,0-4.09-1.15-5.42-3.48c-1.3-2.3-1.96-5.5-1.96-9.58c0-1,0.06-2,0.21-3.01   c0.15-1,0.34-1.98,0.6-2.94c-0.49,0.79-0.98,1.41-1.43,1.83c-0.47,0.45-0.85,0.66-1.19,0.66c-0.3,0-0.49-0.04-0.6-0.13   c-0.11-0.09-0.15-0.21-0.15-0.36c0-0.34,0.53-1.15,1.62-2.43c1.09-1.3,2.54-2.88,4.37-4.76c4.01-3.99,8.02-7.08,12.05-9.26   c4.01-2.2,7.7-3.28,11.03-3.28c2.05,0,3.69,0.53,4.93,1.62c1.22,1.09,1.83,2.52,1.83,4.31c0,0.41-0.04,0.85-0.13,1.3   C929.33,84.98,929.22,85.47,929.05,86z M901.64,107.76c0,1.22,0.28,2.18,0.81,2.88c0.55,0.7,1.3,1.07,2.26,1.07   c1.41,0,3.18-0.7,5.29-2.13c2.11-1.41,4.31-3.39,6.59-5.93c3.48-3.8,6.14-7.49,8.04-11.09c1.9-3.6,2.86-6.72,2.86-9.34   c0-1.13-0.4-2.09-1.22-2.86c-0.81-0.77-1.81-1.15-2.99-1.15c-2.07,0-4.35,0.9-6.8,2.71c-2.47,1.81-4.91,4.37-7.34,7.66   c-2.33,3.31-4.18,6.59-5.5,9.9C902.3,102.75,901.64,105.52,901.64,107.76z M877.35,96.37c-4.78,5.46-9,9.6-12.63,12.39   c-3.63,2.81-6.57,4.22-8.87,4.22c-1.49,0-2.77-0.73-3.82-2.15c-1.04-1.43-1.56-3.24-1.56-5.4c0-3.75,2.09-8.45,6.27-14.06   c0.28-0.43,0.49-0.7,0.62-0.87c1.83-2.54,3.16-4.56,3.95-6.06c0.79-1.49,1.19-2.69,1.19-3.56c0-0.62-0.13-1.07-0.41-1.3   c-0.28-0.26-0.77-0.38-1.47-0.38c-1.3,0-3.05,0.9-5.27,2.71c-2.2,1.81-5.38,4.97-9.51,9.47c-0.83,0.87-1.86,2.03-3.07,3.43   c-1.49,1.79-2.47,2.69-2.94,2.69c-0.15,0-0.3-0.04-0.43-0.15c-0.13-0.11-0.19-0.23-0.19-0.34c0-0.34,0.19-0.79,0.6-1.39   c0.38-0.58,1.17-1.54,2.35-2.86l4.07-4.44c4.37-4.71,7.57-7.76,9.62-9.17c2.05-1.43,3.97-2.13,5.76-2.13   c1.66,0,3.01,0.62,4.01,1.88c1,1.24,1.49,2.9,1.49,4.93c0,1.62-0.36,3.31-1.07,5.03c-0.7,1.73-2.11,4.16-4.2,7.27l-0.81,1.26   c-4.14,6.31-6.21,10.07-6.21,11.24c0,0.7,0.21,1.3,0.62,1.81c0.43,0.49,0.87,0.75,1.39,0.75c2.58,0,6.91-3.14,12.97-9.43   c6.08-6.29,11.88-14.1,17.43-23.44l7.81-0.49c-3.86,6.29-7.51,12.43-10.92,18.45c-3.41,6.02-6.57,11.8-9.45,17.32   c5.29-3.41,10.07-7.34,14.31-11.75c4.25-4.44,6.4-6.65,6.44-6.65c0.17,0,0.3,0.06,0.43,0.19c0.13,0.13,0.19,0.26,0.19,0.43   c0,1.17-2.35,3.99-7.02,8.47c-4.69,4.48-10.07,8.55-16.17,12.26c-6.23,11.92-12.26,21.12-18.07,27.58   c-5.82,6.46-10.86,9.68-15.17,9.68c-2.11,0-3.73-0.53-4.86-1.62c-1.13-1.09-1.68-2.67-1.68-4.76c0-4.12,2.62-8.62,7.85-13.5   c5.23-4.89,13.99-10.92,26.32-18.13L877.35,96.37z M865.87,118.49c-9.3,5.4-16.53,10.64-21.65,15.81c-5.14,5.14-7.7,9.62-7.7,13.42   c0,1.41,0.32,2.47,0.94,3.22c0.62,0.73,1.54,1.09,2.75,1.09c3.14,0,6.57-2.39,10.3-7.19C854.25,140.03,859.36,131.26,865.87,118.49   z M839.06,57.68c0-1.39,0.55-2.67,1.66-3.9c1.11-1.22,2.3-1.83,3.6-1.83c1.05,0,1.88,0.34,2.5,1.02c0.62,0.68,0.94,1.58,0.94,2.64   c0,1.43-0.51,2.73-1.56,3.97c-1.05,1.22-2.22,1.83-3.52,1.83c-1.05,0-1.9-0.36-2.6-1.07C839.4,59.64,839.06,58.74,839.06,57.68z    M823.32,85.3c-2.35,2.35-4.78,4.93-7.32,7.79c-2.52,2.86-4.01,4.29-4.46,4.29c-0.17,0-0.3-0.02-0.38-0.09   c-0.08-0.06-0.13-0.17-0.13-0.3c0-0.53,1.43-2.43,4.27-5.67c2.84-3.26,6.85-7.55,12.01-12.91l9.19-0.62l-12.69,19.96   c-2.71,4.27-4.44,7.15-5.16,8.6c-0.73,1.45-1.09,2.6-1.09,3.44c0,0.62,0.21,1.17,0.66,1.68c0.43,0.49,0.94,0.75,1.54,0.75   c1.58,0,3.52-0.83,5.8-2.52c2.3-1.69,5.35-4.56,9.19-8.66c0.7-0.79,1.62-1.79,2.75-3.05c1.66-1.86,2.69-2.79,3.11-2.79   c0.21,0,0.38,0.06,0.53,0.19c0.15,0.13,0.21,0.28,0.21,0.43c0,0.38-0.36,1-1.07,1.88c-0.7,0.87-2.3,2.6-4.8,5.18   c-4.29,4.37-7.53,7.34-9.75,8.85c-2.2,1.51-4.16,2.28-5.87,2.28c-2.09,0-3.75-0.73-5.03-2.2c-1.26-1.45-1.9-3.41-1.9-5.86   c0-3.26,2.94-9.34,8.85-18.26C822.49,86.64,822.98,85.85,823.32,85.3z M807.3,76.87c9.92-6.68,18.09-13.74,24.53-21.22   c6.42-7.49,9.64-13.12,9.64-16.91c0-1.17-0.32-2.07-0.94-2.73c-0.62-0.64-1.47-0.96-2.56-0.96c-3.63,0-7.81,3.22-12.54,9.66   C820.67,51.15,814.64,61.88,807.3,76.87z M790.13,111.56h0.68c1.71,0,3.78-0.75,6.19-2.22c2.41-1.47,5.06-3.63,7.87-6.46   c1.3-1.32,2.82-2.94,4.56-4.86c1.66-1.88,2.67-2.81,3.01-2.81c0.17,0,0.32,0.06,0.49,0.21c0.17,0.15,0.26,0.28,0.26,0.41   c0,0.51-0.85,1.73-2.56,3.67c-1.71,1.92-3.97,4.2-6.76,6.83c-2.94,2.79-5.67,4.88-8.17,6.25c-2.52,1.36-4.73,2.07-6.7,2.07h-0.49   l-17.7,35.37l-9.06,1l20.31-37.63c-0.66-0.58-1.17-1.17-1.52-1.77c-0.32-0.62-0.49-1.22-0.49-1.79c0-1.22,0.38-2.22,1.13-3.03   c0.75-0.81,1.69-1.22,2.82-1.22c0.28,0,0.6,0.04,0.9,0.15c0.32,0.11,0.7,0.26,1.17,0.47l13.05-24.42   c-3.54,3.16-6.95,6.57-10.22,10.24c-3.26,3.67-5.12,5.5-5.55,5.5c-0.15,0-0.28-0.04-0.36-0.13c-0.08-0.09-0.13-0.21-0.13-0.36   c0-0.77,1.9-3.22,5.7-7.42c3.8-4.18,8.57-9,14.38-14.46c7.55-14.46,14.16-25.04,19.86-31.78c5.72-6.72,10.9-10.09,15.57-10.09   c1.66,0,3.07,0.6,4.2,1.81c1.15,1.22,1.73,2.64,1.73,4.31c0,4.5-3.16,10.13-9.47,16.87c-6.29,6.76-16.21,15.04-29.69,24.87   L790.13,111.56z M782.71,57.68c0-1.39,0.55-2.67,1.66-3.9c1.11-1.22,2.3-1.83,3.6-1.83c1.05,0,1.88,0.34,2.5,1.02   c0.62,0.68,0.94,1.58,0.94,2.64c0,1.43-0.51,2.73-1.56,3.97c-1.05,1.22-2.22,1.83-3.52,1.83c-1.05,0-1.9-0.36-2.6-1.07   C783.05,59.64,782.71,58.74,782.71,57.68z M766.97,85.3c-2.35,2.35-4.78,4.93-7.32,7.79c-2.52,2.86-4.01,4.29-4.46,4.29   c-0.17,0-0.3-0.02-0.38-0.09c-0.08-0.06-0.13-0.17-0.13-0.3c0-0.53,1.43-2.43,4.27-5.67c2.84-3.26,6.85-7.55,12.01-12.91l9.19-0.62   l-12.69,19.96c-2.71,4.27-4.44,7.15-5.16,8.6c-0.73,1.45-1.09,2.6-1.09,3.44c0,0.62,0.21,1.17,0.66,1.68   c0.43,0.49,0.94,0.75,1.54,0.75c1.58,0,3.52-0.83,5.8-2.52c2.3-1.69,5.35-4.56,9.19-8.66c0.7-0.79,1.62-1.79,2.75-3.05   c1.66-1.86,2.69-2.79,3.11-2.79c0.21,0,0.38,0.06,0.53,0.19c0.15,0.13,0.21,0.28,0.21,0.43c0,0.38-0.36,1-1.07,1.88   c-0.7,0.87-2.3,2.6-4.8,5.18c-4.29,4.37-7.53,7.34-9.75,8.85c-2.2,1.51-4.16,2.28-5.87,2.28c-2.09,0-3.75-0.73-5.03-2.2   c-1.26-1.45-1.9-3.41-1.9-5.86c0-3.26,2.94-9.34,8.85-18.26C766.13,86.64,766.62,85.85,766.97,85.3z M739.47,86l5.25-7.66   l8.45-0.51l-14.08,22.1c-2.09,3.26-3.39,5.52-3.95,6.76c-0.53,1.26-0.81,2.35-0.81,3.26c0,0.7,0.15,1.22,0.45,1.54   c0.28,0.3,0.79,0.47,1.49,0.47c1.09,0,2.77-0.92,5.1-2.73c2.3-1.81,5.23-4.54,8.72-8.17c1-1,2.15-2.22,3.48-3.69   c1.32-1.45,2.11-2.18,2.41-2.18c0.26,0,0.43,0.04,0.55,0.13c0.13,0.09,0.19,0.21,0.19,0.36c0,0.47-0.47,1.28-1.43,2.45   c-0.96,1.15-2.45,2.75-4.46,4.74c-4.5,4.63-7.81,7.64-9.96,9.04c-2.15,1.39-4.16,2.09-6.04,2.09c-1.71,0-3.01-0.53-3.9-1.62   c-0.9-1.09-1.34-2.67-1.34-4.76c0-0.53,0.04-1.15,0.13-1.83c0.09-0.71,0.26-1.71,0.49-3.05c-2.92,3.71-5.74,6.53-8.47,8.43   c-2.73,1.9-5.29,2.84-7.68,2.84c-2.28,0-4.09-1.15-5.42-3.48c-1.3-2.3-1.96-5.5-1.96-9.58c0-1,0.06-2,0.21-3.01   c0.15-1,0.34-1.98,0.6-2.94c-0.49,0.79-0.98,1.41-1.43,1.83c-0.47,0.45-0.85,0.66-1.19,0.66c-0.3,0-0.49-0.04-0.6-0.13   c-0.11-0.09-0.15-0.21-0.15-0.36c0-0.34,0.53-1.15,1.62-2.43c1.09-1.3,2.54-2.88,4.37-4.76c4.01-3.99,8.02-7.08,12.05-9.26   c4.01-2.2,7.7-3.28,11.03-3.28c2.05,0,3.69,0.53,4.93,1.62c1.22,1.09,1.83,2.52,1.83,4.31c0,0.41-0.04,0.85-0.13,1.3   C739.75,84.98,739.64,85.47,739.47,86z M712.06,107.76c0,1.22,0.28,2.18,0.81,2.88c0.55,0.7,1.3,1.07,2.26,1.07   c1.41,0,3.18-0.7,5.29-2.13c2.11-1.41,4.31-3.39,6.59-5.93c3.48-3.8,6.14-7.49,8.04-11.09c1.9-3.6,2.86-6.72,2.86-9.34   c0-1.13-0.4-2.09-1.22-2.86c-0.81-0.77-1.81-1.15-2.99-1.15c-2.07,0-4.35,0.9-6.8,2.71c-2.47,1.81-4.91,4.37-7.34,7.66   c-2.32,3.31-4.18,6.59-5.5,9.9C712.72,102.75,712.06,105.52,712.06,107.76z"></path>
</g>
<g>
	<path class="st1" d="M348.33,176.28l-4.81,13.07c0.02,0,0.05,0.07,0.11,0.21c1.81,0.07,3.4,0.11,4.76,0.11   c1.32,0,2.79-0.05,4.39-0.16c0.04,0,0.06-0.02,0.09-0.06c0.03-0.05,0.05-0.09,0.07-0.15v-0.05L348.33,176.28z M338.07,197.86   c0-0.01,3.37-8.85,10.09-26.5c0.2-0.39,0.63-0.8,1.29-1.23c0.31-0.21,0.55-0.32,0.7-0.32c0.02,0,0.1,0.05,0.23,0.14   c0.04,0.02,0.06,0.03,0.08,0.03l10.65,28.6c0.87,2.28,1.31,3.46,1.33,3.53c0.31,0.77,1.27,1.34,2.85,1.72   c0.32,0.07,0.55,0.11,0.72,0.11c0.2,0.3,0.25,0.8,0.12,1.47c-0.02,0.04-0.03,0.06-0.03,0.08c-0.44-0.02-1.04-0.06-1.8-0.11   c-1.59-0.11-2.9-0.16-3.95-0.16c-0.62,0-2.41,0.08-5.39,0.25c-0.24,0-0.47,0.01-0.68,0.03c-0.19-0.2-0.23-0.58-0.13-1.13   c0.05-0.2,0.12-0.35,0.19-0.43c0.84,0,1.64-0.15,2.43-0.43c0.23-0.09,0.39-0.18,0.5-0.27c0.14-0.16,0.2-0.4,0.2-0.75   c-0.02-1.07-1.2-4.55-3.55-10.44c0,0-0.08-0.06-0.23-0.19c-0.04-0.02-0.06-0.03-0.08-0.03c-0.49-0.04-2.21-0.05-5.18-0.05   c-2.21,0-4.1,0.05-5.65,0.16l-0.26,0.16c0,0.02-0.78,2.19-2.36,6.54c-0.49,1.46-0.73,2.72-0.73,3.8c0,0.75,0.96,1.23,2.88,1.45   c0.31,0.04,0.56,0.05,0.73,0.05c0.14,0.14,0.2,0.55,0.16,1.22c-0.02,0.15-0.04,0.26-0.05,0.33c-0.51-0.02-1.13-0.06-1.88-0.14   c-1.17-0.09-2.23-0.14-3.19-0.14c-0.63,0-2.19,0.07-4.66,0.22c-0.31,0.02-0.63,0.04-0.94,0.06c-0.14-0.15-0.17-0.54-0.08-1.18   c0.02-0.16,0.05-0.29,0.08-0.37c0.81,0,1.62-0.17,2.4-0.51c0.35-0.17,0.6-0.33,0.73-0.51C336.36,201.9,337.18,200.22,338.07,197.86   z"></path>
	<path class="st1" d="M381.09,187.52c0-2.74-1.05-4.48-3.15-5.22c-0.73-0.25-1.56-0.38-2.49-0.38c-1.09,0.01-1.71,0.14-1.83,0.38   c-0.12,0.31-0.18,1.24-0.18,2.79l0.02,7.8h1.95c1.51,0,2.81-0.48,3.92-1.46C380.49,190.39,381.08,189.09,381.09,187.52    M377.06,180.74c1.71,0,3.27,0.47,4.67,1.41c1.69,1.13,2.6,2.63,2.77,4.51c0.01,0.18,0.01,0.35,0.01,0.52   c0,1.43-0.63,2.81-1.9,4.12c-0.93,0.95-1.96,1.64-3.09,2.03c1.54,2.61,3.41,5.4,5.62,8.38c0.1,0.13,0.19,0.27,0.29,0.39   c0.76,1.01,1.61,1.66,2.54,1.96c0.46,0.13,0.99,0.23,1.59,0.28c0.14,0.13,0.13,0.47-0.02,1.01c-0.01,0.04-0.02,0.06-0.02,0.08   c-2.38,0-3.99-0.15-4.83-0.45c-0.78-0.29-1.38-0.62-1.79-1.01c-0.22-0.2-0.42-0.41-0.59-0.64c-0.83-1.13-2.47-3.6-4.92-7.42   c-0.32-0.5-0.62-0.97-0.9-1.41c-0.21-0.3-0.57-0.45-1.09-0.45h-1.94v6.94c0,1.44,0.06,2.36,0.18,2.76   c0.07,0.27,0.77,0.46,2.11,0.58c0.18,0.01,0.32,0.02,0.42,0.02c0.13,0.16,0.17,0.43,0.11,0.8c-0.02,0.13-0.06,0.23-0.11,0.28   c-2.52-0.13-3.94-0.19-4.29-0.19c-0.4,0-1.84,0.06-4.32,0.19c-0.15-0.15-0.18-0.43-0.09-0.84c0.02-0.12,0.05-0.2,0.09-0.24   c0.71,0,1.37-0.1,1.99-0.28c0.32-0.1,0.49-0.21,0.53-0.32c0.1-0.32,0.16-1.21,0.18-2.65c0-0.05,0-0.09,0-0.12l-0.02-15.92   c0-1.44-0.06-2.36-0.18-2.76c-0.07-0.27-0.77-0.46-2.1-0.58c-0.18-0.01-0.32-0.02-0.42-0.02c-0.14-0.16-0.17-0.43-0.11-0.8   c0.02-0.13,0.06-0.23,0.11-0.28c2.51,0.13,3.95,0.18,4.32,0.18c0.42,0,1.12-0.01,2.07-0.03   C375.23,180.75,376.27,180.74,377.06,180.74z"></path>
	<path class="st1" d="M399.3,185.1l-3.37,9.1c0.01,0,0.04,0.05,0.07,0.15c1.27,0.05,2.38,0.08,3.33,0.08c0.93,0,1.95-0.04,3.07-0.12   c0.02,0,0.04-0.01,0.06-0.04c0.02-0.03,0.04-0.06,0.05-0.1v-0.04L399.3,185.1z M392.13,200.13c0-0.01,2.36-6.16,7.06-18.46   c0.14-0.27,0.44-0.56,0.9-0.86c0.22-0.15,0.39-0.22,0.49-0.22c0.01,0,0.07,0.03,0.16,0.1c0.02,0.01,0.04,0.02,0.06,0.02l7.45,19.91   c0.61,1.59,0.92,2.41,0.93,2.46c0.22,0.53,0.89,0.94,1.99,1.2c0.22,0.05,0.39,0.08,0.5,0.08c0.14,0.21,0.17,0.55,0.09,1.02   c-0.01,0.02-0.02,0.04-0.02,0.06c-0.3-0.01-0.73-0.04-1.26-0.08c-1.11-0.08-2.03-0.12-2.76-0.12c-0.43,0-1.69,0.06-3.77,0.17   c-0.17,0-0.33,0.01-0.47,0.02c-0.13-0.14-0.16-0.4-0.09-0.78c0.04-0.14,0.08-0.24,0.13-0.3c0.59,0,1.15-0.1,1.7-0.3   c0.16-0.06,0.27-0.13,0.35-0.19c0.1-0.11,0.14-0.28,0.14-0.52c-0.01-0.74-0.84-3.17-2.49-7.27c0,0-0.06-0.04-0.16-0.13   c-0.02-0.01-0.04-0.02-0.06-0.02c-0.34-0.02-1.55-0.03-3.62-0.03c-1.55,0-2.87,0.03-3.95,0.11l-0.18,0.11   c0,0.01-0.55,1.53-1.65,4.55c-0.34,1.02-0.51,1.9-0.51,2.65c0,0.52,0.67,0.85,2.01,1.01c0.22,0.02,0.39,0.04,0.51,0.04   c0.1,0.09,0.14,0.38,0.11,0.85c-0.01,0.1-0.03,0.18-0.04,0.23c-0.36-0.01-0.8-0.04-1.32-0.09c-0.82-0.06-1.56-0.1-2.23-0.1   c-0.44,0-1.53,0.05-3.26,0.15c-0.22,0.01-0.44,0.02-0.66,0.04c-0.1-0.1-0.12-0.38-0.06-0.82c0.01-0.12,0.03-0.2,0.06-0.26   c0.57,0,1.13-0.12,1.68-0.36c0.24-0.11,0.42-0.23,0.51-0.36C390.93,202.94,391.5,201.77,392.13,200.13z"></path>
	<path class="st1" d="M422.76,180.74c2.31,0,4.13,0.52,5.47,1.57c1.24,0.97,1.87,2.3,1.89,3.99c0,1.56-0.64,2.96-1.92,4.19   c-0.61,0.58-1.2,0.99-1.77,1.21c-0.08,0.06-0.08,0.13,0,0.19c0.87,0.03,1.8,0.43,2.8,1.17c1.42,1.07,2.26,2.38,2.51,3.93   c0.04,0.3,0.07,0.6,0.07,0.9c-0.01,2.27-0.83,4.11-2.47,5.52c-1.54,1.29-4.09,1.97-7.67,2.02h-8.42c-0.15-0.15-0.18-0.43-0.09-0.84   c0.02-0.12,0.06-0.2,0.09-0.24c0.71,0,1.37-0.1,1.99-0.28c0.32-0.1,0.49-0.21,0.53-0.32c0.12-0.41,0.18-1.33,0.18-2.76v-15.92   c0-1.44-0.06-2.36-0.18-2.76c-0.07-0.27-0.77-0.46-2.11-0.58c-0.18-0.01-0.32-0.02-0.42-0.02c-0.14-0.16-0.17-0.43-0.11-0.8   c0.02-0.13,0.06-0.23,0.11-0.28c2.51,0.13,3.95,0.18,4.32,0.18c0.42,0,1.12-0.01,2.07-0.03   C420.93,180.75,421.97,180.74,422.76,180.74 M419.14,191.51h3.06c1.92,0,3.27-0.69,4.05-2.09c0.36-0.69,0.55-1.44,0.55-2.28   c0-2-0.75-3.46-2.24-4.36c-0.94-0.57-2.07-0.86-3.4-0.86c-1.1,0.01-1.71,0.14-1.83,0.38c-0.14,0.37-0.21,1.3-0.18,2.79V191.51z    M419.14,192.93v8.09c-0.02,0.8,0.04,1.51,0.18,2.16c0.05,0.19,0.1,0.31,0.15,0.38c0.38,0.41,1.16,0.63,2.34,0.67   c0.17,0,0.35,0,0.55,0c3.87-0.02,5.8-1.85,5.82-5.48c-0.03-3.87-2.29-5.8-6.81-5.82H419.14z"></path>
	<path class="st1" d="M439.16,180.81c0.38,0,1.81-0.06,4.29-0.18c0.14,0.15,0.17,0.43,0.09,0.84c-0.02,0.11-0.06,0.19-0.09,0.24   c-0.71,0-1.38,0.09-2,0.28c-0.32,0.1-0.49,0.2-0.53,0.32c-0.12,0.41-0.18,1.33-0.18,2.76v15.92c0,1.44,0.06,2.36,0.18,2.76   c0.08,0.27,0.78,0.46,2.11,0.58c0.18,0.01,0.33,0.02,0.43,0.02c0.13,0.16,0.17,0.43,0.11,0.8c-0.03,0.13-0.06,0.23-0.11,0.28   c-2.52-0.13-3.94-0.19-4.29-0.19c-0.4,0-1.84,0.06-4.32,0.19c-0.15-0.15-0.18-0.43-0.09-0.84c0.02-0.12,0.05-0.2,0.09-0.24   c0.71,0,1.37-0.1,1.99-0.28c0.32-0.1,0.49-0.21,0.53-0.32c0.12-0.41,0.18-1.33,0.18-2.76v-15.92c0-1.44-0.06-2.36-0.18-2.76   c-0.07-0.27-0.77-0.46-2.1-0.58c-0.18-0.01-0.33-0.02-0.42-0.02c-0.14-0.16-0.17-0.43-0.11-0.8c0.02-0.13,0.06-0.23,0.11-0.28   C437.36,180.75,438.8,180.81,439.16,180.81"></path>
	<path class="st1" d="M458.84,180.44c2.81,0,5.39,0.26,7.76,0.78c0,0,0.27,1.79,0.83,5.38c0.01,0.06,0.02,0.11,0.02,0.13   c0.02,0.14-0.1,0.27-0.37,0.39c-0.14,0.06-0.29,0.09-0.44,0.09c-0.18,0-0.33-0.04-0.44-0.11c-0.56-2.96-2.29-4.72-5.17-5.26   c-0.62-0.12-1.29-0.18-2.01-0.18c-2.32,0-4.32,0.95-6,2.85c-1.45,1.66-2.37,3.67-2.76,6.03c-0.11,0.67-0.17,1.33-0.17,1.97   c0,2.83,0.65,5.3,1.94,7.42c1.45,2.37,3.44,3.79,5.97,4.23c0.52,0.09,1.06,0.13,1.61,0.13c1.89-0.01,3.5-0.61,4.83-1.8   c1.1-1.01,1.84-2.44,2.24-4.32c0.42-0.04,0.82,0.06,1.17,0.3c0,0.59-0.19,1.7-0.57,3.32c-0.28,1.18-0.52,1.87-0.71,2.05   c-1.96,1.12-4.59,1.68-7.87,1.68c-3.12,0-5.8-0.96-8.03-2.89c-2-1.71-3.29-3.89-3.88-6.52c-0.21-0.94-0.31-1.87-0.31-2.82   c0-2.97,0.85-5.61,2.55-7.9c1.63-2.23,3.75-3.73,6.37-4.47C456.5,180.6,457.65,180.44,458.84,180.44"></path>
	<path class="st1" d="M500.2,176.28l-4.76,13.07c0.02,0,0.05,0.07,0.11,0.21c1.79,0.07,3.36,0.11,4.7,0.11   c1.31,0,2.76-0.05,4.34-0.16c0.03,0,0.06-0.02,0.09-0.06c0.03-0.05,0.05-0.09,0.07-0.15v-0.05L500.2,176.28z M490.06,197.86   c0-0.01,3.33-8.85,9.98-26.5c0.19-0.39,0.62-0.8,1.27-1.23c0.31-0.21,0.55-0.32,0.7-0.32c0.02,0,0.1,0.05,0.23,0.14   c0.04,0.02,0.06,0.03,0.08,0.03l10.53,28.6c0.86,2.28,1.3,3.46,1.31,3.53c0.31,0.77,1.25,1.34,2.82,1.72   c0.32,0.07,0.55,0.11,0.71,0.11c0.2,0.3,0.25,0.8,0.12,1.47c-0.02,0.04-0.03,0.06-0.03,0.08c-0.43-0.02-1.02-0.06-1.78-0.11   c-1.57-0.11-2.87-0.16-3.9-0.16c-0.61,0-2.38,0.08-5.33,0.25c-0.24,0-0.47,0.01-0.67,0.03c-0.19-0.2-0.23-0.58-0.13-1.13   c0.05-0.2,0.11-0.35,0.19-0.43c0.83,0,1.62-0.15,2.4-0.43c0.23-0.09,0.39-0.18,0.49-0.27c0.14-0.16,0.2-0.4,0.2-0.75   c-0.02-1.07-1.18-4.55-3.51-10.44c0,0-0.08-0.06-0.23-0.19c-0.04-0.02-0.06-0.03-0.08-0.03c-0.48-0.04-2.19-0.05-5.12-0.05   c-2.19,0-4.05,0.05-5.59,0.16l-0.26,0.16c0,0.02-0.78,2.19-2.33,6.54c-0.49,1.46-0.73,2.72-0.73,3.8c0,0.75,0.94,1.23,2.84,1.45   c0.31,0.04,0.56,0.05,0.72,0.05c0.14,0.14,0.19,0.55,0.16,1.22c-0.02,0.15-0.04,0.26-0.05,0.33c-0.5-0.02-1.12-0.06-1.86-0.14   c-1.16-0.09-2.21-0.14-3.15-0.14c-0.63,0-2.16,0.07-4.61,0.22c-0.31,0.02-0.62,0.04-0.93,0.06c-0.14-0.15-0.17-0.54-0.08-1.18   c0.02-0.16,0.05-0.29,0.08-0.37c0.8,0,1.6-0.17,2.37-0.51c0.34-0.17,0.59-0.33,0.72-0.51C488.37,201.9,489.18,200.22,490.06,197.86   z"></path>
	<path class="st1" d="M531.68,180.98c2.8,0,5.39,0.26,7.76,0.77c0,0,0.27,1.76,0.82,5.27c0.01,0.06,0.02,0.11,0.02,0.13   c0.02,0.14-0.1,0.26-0.37,0.39c-0.14,0.06-0.29,0.09-0.44,0.09c-0.18,0-0.33-0.04-0.44-0.11c-0.56-2.9-2.29-4.61-5.16-5.15   c-0.62-0.12-1.29-0.18-2.01-0.18c-2.32,0-4.32,0.93-6,2.79c-1.45,1.62-2.37,3.59-2.76,5.9c-0.11,0.65-0.17,1.3-0.17,1.93   c0,2.76,0.65,5.18,1.94,7.26c1.45,2.32,3.44,3.71,5.97,4.14c0.52,0.09,1.06,0.13,1.61,0.13c1.89-0.01,3.5-0.6,4.83-1.76   c1.1-0.98,1.84-2.39,2.24-4.23c0.42-0.04,0.82,0.06,1.17,0.29c0,0.58-0.19,1.66-0.57,3.24c-0.28,1.16-0.52,1.82-0.71,2.01   c-1.96,1.1-4.58,1.64-7.87,1.64c-3.12,0-5.8-0.94-8.03-2.83c-2-1.67-3.29-3.8-3.88-6.38c-0.21-0.91-0.31-1.83-0.31-2.76   c0-2.91,0.85-5.49,2.55-7.73c1.63-2.19,3.76-3.65,6.37-4.38C529.35,181.14,530.5,180.98,531.68,180.98"></path>
	<path class="st1" d="M552.89,185.54l-3.37,8.9c0.01,0,0.04,0.05,0.07,0.14c1.27,0.05,2.38,0.08,3.33,0.08   c0.92,0,1.95-0.04,3.07-0.11c0.02,0,0.04-0.01,0.06-0.04c0.02-0.03,0.04-0.06,0.05-0.1v-0.04L552.89,185.54z M545.72,200.24   c0-0.01,2.36-6.03,7.06-18.06c0.14-0.27,0.44-0.55,0.9-0.84c0.22-0.14,0.39-0.22,0.49-0.22c0.01,0,0.07,0.03,0.16,0.09   c0.02,0.01,0.04,0.02,0.06,0.02l7.45,19.48c0.61,1.56,0.92,2.36,0.93,2.4c0.22,0.52,0.89,0.92,1.99,1.17   c0.22,0.05,0.39,0.08,0.5,0.08c0.14,0.2,0.17,0.54,0.09,1c-0.01,0.02-0.02,0.04-0.02,0.06c-0.31-0.01-0.73-0.04-1.26-0.08   c-1.11-0.07-2.03-0.11-2.76-0.11c-0.43,0-1.69,0.05-3.77,0.17c-0.17,0-0.33,0.01-0.48,0.02c-0.13-0.14-0.16-0.39-0.09-0.77   c0.04-0.14,0.08-0.24,0.13-0.29c0.59,0,1.15-0.1,1.7-0.29c0.16-0.06,0.27-0.13,0.35-0.19c0.1-0.11,0.14-0.27,0.14-0.51   c-0.01-0.73-0.84-3.1-2.48-7.11c0,0-0.06-0.04-0.16-0.13c-0.03-0.01-0.04-0.02-0.06-0.02c-0.34-0.03-1.55-0.03-3.62-0.03   c-1.55,0-2.87,0.03-3.95,0.11l-0.18,0.11c0,0.01-0.55,1.49-1.65,4.45c-0.34,1-0.51,1.86-0.51,2.59c0,0.51,0.67,0.83,2.01,0.98   c0.22,0.02,0.39,0.04,0.51,0.04c0.1,0.09,0.14,0.37,0.11,0.83c-0.01,0.1-0.03,0.17-0.04,0.23c-0.35-0.01-0.79-0.04-1.32-0.09   c-0.82-0.06-1.56-0.09-2.23-0.09c-0.44,0-1.53,0.05-3.26,0.15c-0.22,0.01-0.44,0.03-0.66,0.04c-0.1-0.1-0.12-0.37-0.06-0.8   c0.01-0.11,0.03-0.2,0.06-0.26c0.57,0,1.13-0.12,1.68-0.35c0.24-0.11,0.42-0.22,0.51-0.35   C544.52,202.99,545.1,201.85,545.72,200.24z"></path>
	<path class="st1" d="M576.47,181.31c3.74,0,6.78,1.03,9.11,3.1c2.1,1.84,3.31,4.25,3.64,7.21c0.06,0.5,0.09,1,0.09,1.51   c0,4.15-1.25,7.29-3.75,9.42c-2.27,1.92-5.46,2.88-9.57,2.88h-9.14c-0.15-0.15-0.18-0.42-0.09-0.82c0.02-0.11,0.05-0.19,0.09-0.24   c0.7,0,1.37-0.09,1.99-0.27c0.32-0.1,0.49-0.2,0.53-0.31c0.12-0.41,0.18-1.3,0.18-2.7V185.5c0-1.41-0.06-2.31-0.18-2.7   c-0.08-0.27-0.77-0.45-2.11-0.57c-0.18-0.01-0.32-0.02-0.42-0.02c-0.14-0.16-0.18-0.42-0.11-0.78c0.02-0.13,0.06-0.22,0.11-0.27   c2.51,0.12,3.95,0.18,4.32,0.18c0.46,0,1.3-0.01,2.5-0.02C574.98,181.31,575.92,181.31,576.47,181.31 M572.77,185.58v15.54   c0,1.56,0.08,2.44,0.22,2.63c0.27,0.34,1.27,0.51,3,0.51c2.74,0,4.97-0.81,6.7-2.43c2-1.86,3-4.5,3-7.93   c0-4.29-1.27-7.43-3.82-9.42c-1.74-1.34-3.87-2.01-6.39-2.01c-1.55,0.01-2.39,0.14-2.52,0.4   C572.81,183.35,572.74,184.25,572.77,185.58z"></path>
	<path class="st1" d="M596.81,181.34c0.5,0,3.13-0.06,7.89-0.2c1.51-0.04,2.81-0.06,3.9-0.06c0.08,0.65,0.36,1.93,0.82,3.85   c0.09,0.42,0.17,0.79,0.24,1.11c-0.14,0.13-0.36,0.18-0.66,0.18c-0.29-0.01-0.46-0.09-0.51-0.25c-0.47-1.71-1.27-2.77-2.4-3.18   c-0.5-0.17-1.11-0.26-1.85-0.26h-3.14c-1.55,0.01-2.39,0.14-2.53,0.4c-0.14,0.47-0.2,1.34-0.18,2.59v6.82   c-0.01,0.12,0.36,0.19,1.1,0.22c0.14,0,0.31,0,0.47,0h1.94c1.54,0,2.51-0.1,2.91-0.29c0.35-0.18,0.62-0.57,0.8-1.16   c0.05-0.15,0.16-0.54,0.31-1.17c0.05-0.17,0.23-0.26,0.55-0.26c0.29,0.01,0.5,0.08,0.62,0.18v6.9c-0.11,0.1-0.3,0.14-0.58,0.14   c-0.31-0.01-0.5-0.11-0.59-0.29c-0.34-1.31-0.62-2.07-0.84-2.26c-0.05-0.05-0.11-0.09-0.18-0.14c-0.32-0.2-1.61-0.29-3.88-0.29   c-1.76,0-2.64,0.11-2.64,0.33v6.93c-0.04,1.18,0.01,1.97,0.14,2.39c0.02,0.05,0.05,0.1,0.08,0.12c0.29,0.22,0.84,0.34,1.63,0.37   c0.2,0,0.52,0,0.97,0h1.76c1.71,0,3.12-0.26,4.25-0.78c0.14-0.08,0.26-0.14,0.37-0.2c0.72-0.43,1.35-1.29,1.88-2.59   c0.11-0.27,0.25-0.63,0.42-1.1c0.05-0.15,0.22-0.22,0.51-0.22c0.45,0,0.76,0.07,0.91,0.22c-0.11,0.32-0.29,0.82-0.55,1.5   c-0.81,2.22-1.29,3.75-1.42,4.56c-1.27,0-3.14-0.02-5.62-0.07c-2.88-0.05-5.17-0.07-6.86-0.07c-0.6,0-1.39,0.02-2.38,0.06   c-0.87,0.04-1.52,0.06-1.97,0.06c-0.15-0.15-0.18-0.42-0.09-0.82c0.02-0.11,0.06-0.19,0.09-0.24c0.7,0,1.37-0.09,1.99-0.27   c0.32-0.1,0.49-0.2,0.53-0.31c0.12-0.41,0.18-1.3,0.18-2.7V185.5c0-1.41-0.06-2.31-0.18-2.7c-0.07-0.27-0.77-0.45-2.1-0.57   c-0.18-0.01-0.32-0.02-0.42-0.02c-0.14-0.16-0.18-0.42-0.11-0.78c0.02-0.13,0.06-0.22,0.11-0.27   C595.01,181.29,596.45,181.34,596.81,181.34"></path>
	<path class="st1" d="M618.26,181.34c0.65,0,1.64-0.06,2.97-0.18c0.26,0.83,1.76,4.49,4.5,10.99c1.46,3.44,2.54,6.05,3.26,7.85   c0.04,0.04,0.09,0.07,0.14,0.07c0.09-0.02,0.15-0.07,0.19-0.14c3.57-9.17,5.44-13.96,5.6-14.38l1.61-4.38   c1.56,0.1,2.52,0.15,2.89,0.15c1.51,0,2.88-0.05,4.1-0.15c0.08,0.7,0.11,1.06,0.11,1.06c-0.59,0-1.24,0.11-1.96,0.33   c-0.36,0.11-0.58,0.22-0.64,0.32c-0.13,0.28-0.19,0.75-0.19,1.39c0.04,1.1,0.12,4.45,0.24,10.05c0.06,2.85,0.11,4.81,0.13,5.9   c0.05,1.7,0.19,2.88,0.44,3.54c0.12,0.33,0.9,0.54,2.32,0.62c0.1,0,0.18,0,0.24,0c0.15,0.26,0.18,0.59,0.09,1.02   c-0.01,0.01-0.02,0.03-0.02,0.04c-2.45-0.13-3.9-0.19-4.35-0.19c-0.42,0-1.76,0.05-4.01,0.17c-0.13,0.01-0.26,0.02-0.38,0.02   c-0.09-0.09-0.11-0.33-0.08-0.73c0.01-0.14,0.04-0.26,0.08-0.32c0.71,0,1.38-0.09,2.03-0.27c0.14-0.04,0.26-0.08,0.35-0.13   c0.22-0.13,0.33-0.64,0.33-1.53c0-0.17-0.01-0.51-0.03-1.02c-0.03-0.55-0.04-0.91-0.04-1.1c-0.21-7.5-0.37-12.71-0.48-15.62   c0-0.35-0.07-0.58-0.23-0.69c-0.04-0.02-0.08-0.04-0.11-0.04c-0.05,0-0.11,0.07-0.17,0.22c-0.01,0.01-0.02,0.02-0.02,0.04   c-0.57,1.43-3.14,7.86-7.72,19.31c-0.22,0.5-0.52,0.98-0.91,1.46c-0.21,0.24-0.37,0.38-0.48,0.4c-0.06,0.01-0.17-0.01-0.32-0.07   l-8.93-21.31c-0.02,1.15-0.18,7.24-0.47,18.3c0,0.14,0,0.24,0,0.27c0,0.49,0.05,0.86,0.14,1.13c0.15,0.36,1.02,0.57,2.64,0.66   c0.11,0,0.19,0,0.26,0c0.15,0.17,0.18,0.5,0.09,0.98c-0.01,0.04-0.02,0.06-0.02,0.08c-0.33-0.01-0.76-0.04-1.3-0.08   c-1-0.07-1.86-0.11-2.58-0.11c-0.43,0-1.71,0.05-3.82,0.17c-0.16,0-0.31,0.01-0.46,0.02c-0.08-0.09-0.11-0.33-0.07-0.73   c0.01-0.14,0.03-0.26,0.07-0.32c0.74,0,1.49-0.1,2.24-0.29c0.39-0.11,0.63-0.23,0.73-0.37c0.26-0.37,0.4-0.98,0.44-1.82   c0.32-8.55,0.49-14.36,0.51-17.44c0-0.71-0.05-1.19-0.14-1.46c-0.1-0.28-0.75-0.51-1.96-0.69c-0.27-0.05-0.47-0.07-0.6-0.07   c-0.06,0-0.07-0.27-0.04-0.8c0.01-0.14,0.02-0.23,0.04-0.26c0.44,0.02,0.95,0.06,1.54,0.09   C616.85,181.31,617.59,181.34,618.26,181.34"></path>
	<path class="st1" d="M655.08,201.08v-5.51c-0.01-0.34-0.09-0.68-0.26-1.02c-0.77-1.38-1.69-3.04-2.78-4.96   c-0.96-1.68-1.77-3.1-2.42-4.27c-0.56-0.98-1.18-1.71-1.87-2.19c-0.17-0.11-0.35-0.22-0.55-0.32c-0.66-0.33-1.34-0.52-2.05-0.59   c-0.12,0-0.16-0.21-0.12-0.62c0.03-0.22,0.07-0.36,0.12-0.44c0.42,0.01,0.97,0.04,1.65,0.09c1.18,0.06,2.16,0.09,2.93,0.09   c0.71,0,2.27-0.06,4.69-0.18c0.08,0.26,0.09,0.55,0.04,0.88c-0.04,0.11-0.07,0.17-0.11,0.18c-0.68,0-1.26,0.14-1.72,0.44   c-0.31,0.21-0.47,0.45-0.48,0.73c0.01,0.27,0.16,0.63,0.44,1.1l5.08,8.75c1.55-2.78,3.02-5.66,4.39-8.62   c0.16-0.35,0.28-0.63,0.37-0.82c0.07-0.18,0.11-0.37,0.11-0.55c0-0.31-0.25-0.55-0.76-0.73c-0.46-0.17-1.06-0.26-1.81-0.26   c-0.08,0-0.12-0.26-0.11-0.78c0-0.15,0.01-0.24,0.04-0.27c0.29,0.01,0.69,0.04,1.2,0.08c1.03,0.07,1.84,0.11,2.46,0.11   c0.62,0,1.82-0.06,3.6-0.16c0.14,0,0.29-0.01,0.42-0.02c0.07,0.22,0.07,0.52,0,0.9c-0.03,0.11-0.05,0.16-0.08,0.16   c-1.34,0-2.33,0.35-2.96,1.06c-0.11,0.13-0.2,0.27-0.29,0.4c-0.74,1.31-2.67,4.86-5.78,10.62c-0.12,0.23-0.18,0.61-0.18,1.13   l-0.04,5.62c0,1.41,0.06,2.31,0.18,2.7c0.07,0.27,0.77,0.45,2.1,0.57c0.18,0.01,0.33,0.02,0.43,0.02c0.13,0.16,0.17,0.42,0.11,0.78   c-0.02,0.13-0.06,0.22-0.11,0.27c-2.52-0.13-3.94-0.19-4.29-0.19c-0.4,0-1.84,0.06-4.32,0.19c-0.15-0.15-0.18-0.42-0.09-0.82   c0.02-0.11,0.05-0.19,0.09-0.24c0.71,0,1.37-0.09,1.99-0.27c0.32-0.1,0.49-0.2,0.53-0.31   C655.02,203.38,655.08,202.48,655.08,201.08"></path>
</g>
</svg>
